<svg width="24" height="25" viewBox="0 0 24 25" fill="none" xmlns="http://www.w3.org/2000/svg">
<path d="M11.9996 20.9C13.3251 20.9 14.3996 19.8255 14.3996 18.5C14.3996 17.1745 13.3251 16.1 11.9996 16.1C10.6741 16.1 9.59961 17.1745 9.59961 18.5C9.59961 19.8255 10.6741 20.9 11.9996 20.9Z" fill="black" fill-opacity="0.67"/>
<path d="M11.9996 14.9C13.3251 14.9 14.3996 13.8255 14.3996 12.5C14.3996 11.1745 13.3251 10.1 11.9996 10.1C10.6741 10.1 9.59961 11.1745 9.59961 12.5C9.59961 13.8255 10.6741 14.9 11.9996 14.9Z" fill="black" fill-opacity="0.67"/>
<path d="M11.9996 8.90001C13.3251 8.90001 14.3996 7.82549 14.3996 6.50001C14.3996 5.17452 13.3251 4.10001 11.9996 4.10001C10.6741 4.10001 9.59961 5.17452 9.59961 6.50001C9.59961 7.82549 10.6741 8.90001 11.9996 8.90001Z" fill="black" fill-opacity="0.67"/>
</svg>
