<svg width="24" height="25" viewBox="0 0 24 25" fill="none" xmlns="http://www.w3.org/2000/svg">
<path d="M6.75 3.5C5.75544 3.5 4.80161 3.89509 4.09835 4.59835C3.39509 5.30161 3 6.25544 3 7.25V17.75C3 18.7446 3.39509 19.6984 4.09835 20.4016C4.80161 21.1049 5.75544 21.5 6.75 21.5H17.25C18.2446 21.5 19.1984 21.1049 19.9016 20.4016C20.6049 19.6984 21 18.7446 21 17.75V7.25C21 6.25544 20.6049 5.30161 19.9016 4.59835C19.1984 3.89509 18.2446 3.5 17.25 3.5H6.75ZM19.5 8H4.5V7.25C4.5 6.65326 4.73705 6.08097 5.15901 5.65901C5.58097 5.23705 6.15326 5 6.75 5H17.25C17.8467 5 18.419 5.23705 18.841 5.65901C19.2629 6.08097 19.5 6.65326 19.5 7.25V8ZM4.5 9.5H19.5V17.75C19.5 18.3467 19.2629 18.919 18.841 19.341C18.419 19.7629 17.8467 20 17.25 20H6.75C6.15326 20 5.58097 19.7629 5.15901 19.341C4.73705 18.919 4.5 18.3467 4.5 17.75V9.5Z" fill="black" fill-opacity="0.67"/>
</svg>
