<svg width="24" height="25" viewBox="0 0 24 25" fill="none" xmlns="http://www.w3.org/2000/svg">
<path d="M21.0002 21.5L16.6572 17.157M16.6572 17.157C17.4001 16.4141 17.9894 15.5322 18.3914 14.5615C18.7935 13.5909 19.0004 12.5506 19.0004 11.5C19.0004 10.4494 18.7935 9.40908 18.3914 8.43845C17.9894 7.46782 17.4001 6.58588 16.6572 5.84299C15.9143 5.1001 15.0324 4.51081 14.0618 4.10877C13.0911 3.70672 12.0508 3.49979 11.0002 3.49979C9.9496 3.49979 8.90929 3.70672 7.93866 4.10877C6.96803 4.51081 6.08609 5.1001 5.34321 5.84299C3.84288 7.34332 3 9.37821 3 11.5C3 13.6218 3.84288 15.6567 5.34321 17.157C6.84354 18.6573 8.87842 19.5002 11.0002 19.5002C13.122 19.5002 15.1569 18.6573 16.6572 17.157Z" stroke="black" stroke-opacity="0.67" stroke-width="2" stroke-linecap="round" stroke-linejoin="round"/>
</svg>
